<svg id="visual" viewBox="0 0 900 600" width="900" height="600" xmlns="http://www.w3.org/2000/svg" xmlns:xlink="http://www.w3.org/1999/xlink" version="1.1"><rect x="0" y="0" width="900" height="600" fill="#dfe8ee"></rect><defs><linearGradient id="grad1_0" x1="33.3%" y1="0%" x2="100%" y2="100%"><stop offset="20%" stop-color="#dfe8ee" stop-opacity="1"></stop><stop offset="80%" stop-color="#dfe8ee" stop-opacity="1"></stop></linearGradient></defs><defs><linearGradient id="grad2_0" x1="0%" y1="0%" x2="66.7%" y2="100%"><stop offset="20%" stop-color="#dfe8ee" stop-opacity="1"></stop><stop offset="80%" stop-color="#dfe8ee" stop-opacity="1"></stop></linearGradient></defs><g transform="translate(900, 0)"><path d="M0 486.7C-62.9 480.3 -125.9 473.9 -186.3 449.7C-246.6 425.5 -304.4 383.6 -329.5 329.5C-354.6 275.4 -347 209.2 -367.7 152.3C-388.5 95.4 -437.6 47.7 -486.7 0L0 0Z" fill="#9CA5AD"></path></g><g transform="translate(0, 600)"><path d="M0 -486.7C69.8 -486.7 139.7 -486.6 186.3 -449.7C232.9 -412.8 256.2 -339.2 287.8 -287.8C319.3 -236.4 359.1 -207.3 393.6 -163C428.1 -118.8 457.4 -59.4 486.7 0L0 0Z" fill="#9CA5AD"></path></g></svg>