<?xml version="1.0" standalone="no"?><svg xmlns="http://www.w3.org/2000/svg" viewBox="0 0 1440 320"><path fill="#97ADBD" fill-opacity="1" d="M0,224L24,202.7C48,181,96,139,144,133.3C192,128,240,160,288,149.3C336,139,384,85,432,74.7C480,64,528,96,576,133.3C624,171,672,213,720,202.7C768,192,816,128,864,133.3C912,139,960,213,1008,224C1056,235,1104,181,1152,133.3C1200,85,1248,43,1296,37.3C1344,32,1392,64,1416,80L1440,96L1440,320L1416,320C1392,320,1344,320,1296,320C1248,320,1200,320,1152,320C1104,320,1056,320,1008,320C960,320,912,320,864,320C816,320,768,320,720,320C672,320,624,320,576,320C528,320,480,320,432,320C384,320,336,320,288,320C240,320,192,320,144,320C96,320,48,320,24,320L0,320Z"></path></svg>